<svg width="241" height="54" viewBox="0 0 241 54" fill="none" xmlns="http://www.w3.org/2000/svg">
<circle cx="136.888" cy="26.992" r="17.352" stroke="white" stroke-opacity="0.15" stroke-width="19.28"/>
<circle opacity="0.6" cx="136.888" cy="26.992" r="15.424" stroke="white" stroke-width="3.856"/>
<path d="M5.61066 48.1999H0L16.2277 5.78394H21.7521L37.9798 48.1999H32.3692L19.1625 12.4943H18.8173L5.61066 48.1999ZM7.68228 31.6312H30.2976V36.1876H7.68228V31.6312Z" fill="white"/>
<path d="M46.6763 48.1999H41.0657L57.2934 5.78394H62.8178L79.0455 48.1999H73.4349L60.2282 12.4943H59.883L46.6763 48.1999ZM48.748 31.6312H71.3632V36.1876H48.748V31.6312Z" fill="white"/>
<path d="M85.9294 48.1999V5.78394H100.862C104.315 5.78394 107.149 6.35003 109.365 7.48223C111.58 8.60062 113.22 10.1401 114.285 12.1008C115.349 14.0614 115.882 16.2913 115.882 18.7904C115.882 21.2895 115.349 23.5056 114.285 25.4386C113.22 27.3716 111.587 28.8904 109.386 29.995C107.185 31.0858 104.373 31.6312 100.949 31.6312H88.8642V26.9919H100.776C103.135 26.9919 105.034 26.6606 106.473 25.9978C107.926 25.3351 108.976 24.3962 109.624 23.1811C110.285 21.9523 110.616 20.4887 110.616 18.7904C110.616 17.0921 110.285 15.6078 109.624 14.3376C108.962 13.0673 107.904 12.087 106.451 11.3966C104.998 10.6924 103.078 10.3403 100.69 10.3403H91.2811V48.1999H85.9294ZM106.732 29.1459L117.608 48.1999H111.393L100.69 29.1459H106.732Z" fill="white"/>
<path d="M195.146 5.78394V48.1999H189.955L165.82 14.8967H165.387V48.1999H160.024V5.78394H165.214L189.436 39.17H189.869V5.78394H195.146Z" fill="white"/>
<path d="M241 5.78394V48.1999H235.81L211.674 14.8967H211.242V48.1999H205.878V5.78394H211.069L235.291 39.17H235.723V5.78394H241Z" fill="white"/>
</svg>
